%
M48
M72
T01C0.02500
T02C0.03500
T03C0.03800
T04C0.12200
%
T01
X164100Y46500
X206600Y76500
X174100Y84000
X206600Y99000
X226600Y104000
X227850Y124000
X211600Y134000
X204100Y134000
X199100Y134000
X184100Y134000
X184100Y114000
X249100Y144000
X221600Y14000
T02
X259100Y79000
X259100Y94000
X259100Y109000
X259100Y124000
X111600Y124000
X96600Y124000
X81600Y124000
X66600Y124000
X51600Y124000
X36600Y124000
X51600Y136500
X66600Y136500
X81600Y136500
X96600Y136500
X111600Y136500
T03
X106600Y99000
X96600Y99000
X86600Y99000
X76600Y99000
X66600Y99000
X56600Y99000
X46600Y99000
X36600Y99000
X26600Y99000
X16600Y99000
X116600Y99000
X126600Y99000
X136600Y99000
X146600Y99000
X146600Y89000
X146600Y69000
X146600Y59000
X146600Y49000
X146600Y39000
X136600Y39000
X126600Y39000
X116600Y39000
X106600Y39000
X96600Y39000
X86600Y39000
X76600Y39000
X66600Y39000
X56600Y39000
X46600Y39000
X36600Y39000
X26600Y39000
X16600Y39000
T04
X16600Y19000
X141600Y131500
X256600Y19000
M30
